<svg xmlns="http://www.w3.org/2000/svg" height="182.52163527201424" width="310"
     style="width: 310px; height: 182.522px; position: absolute; top: 50%; left: 50%; transform: translate(-50%, -50%) scale(1); z-index: 0; cursor: pointer;">
    <g
            transform="matrix(3.3968302853893477,0,0,3.3968302853893477,-8.293363396449074,-33.968302853893476)"
            fill="#111111">
        <path d="M14.922 21.191 l7.1484 0 l0 18.809 l-7.1484 0 l0 -1.7188 c-1.3672 1.3086 -3.125 2.0703 -5.0781 2.0703 c-0.78125 0 -1.543 -0.11719 -2.2461 -0.35156 l0 9.3945 l-5.1563 0 l0 -28.203 l7.207 0 l0 10.527 c0 1.3672 1.0352 2.4023 2.3828 2.4023 c1.6406 0 2.8906 -1.0352 2.8906 -2.4023 l0 -10.527 z M44.164531249999996 17.754 l-10 0 l0 4.6875 l8.9063 0 l0 6.4063 l-8.9063 0 l0 4.6289 l10 0 l0 6.5234 l-17.441 0 l0 -28.711 l17.441 0 l0 6.4648 z M48.13281875 40 l0 -30 l7.207 0 l0 30 l-7.207 0 z M86.02725 18.926 c4.7656 0 7.6758 2.1875 7.6758 6.3867 l0 14.688 l-7.1094 0 l0 -12.598 c0 -2.0117 -1.3281 -2.8516 -2.8125 -2.8516 c-1.7969 0 -3.5938 0.9375 -3.5938 4.4922 l0 10.957 l-7.207 0 l0 -12.598 c0 -2.0117 -1.2695 -2.8516 -2.832 -2.8516 c-1.7578 0 -3.5938 0.9375 -3.5938 4.8828 l0 10.566 l-7.0898 0 l0 -20.684 l7.0898 0 l0 2.3242 c1.4648 -1.7578 3.6133 -2.7148 6.1914 -2.7148 c3.2422 0 5.5469 1.0352 6.6797 2.9492 c1.543 -1.9922 3.8281 -2.9492 6.6016 -2.9492 z "/>
    </g>
    <g
            transform="matrix(1.8782088219800241,0,0,1.8782088219800241,-2.9887932706783684,144.60895589009988)"
            fill="#111111">
        <path d="M12.441 9.99 c1.9727 0 3.3105 1.0938 3.3105 3.125 l0 6.8848 l-2.2559 0 l0 -6.2598 c0 -1.3281 -0.80078 -1.9141 -1.7188 -1.9141 c-1.0742 0 -1.9531 0.66406 -1.9531 2.373 l0 5.8008 l-2.2852 0 l0 -6.2109 c0 -1.3574 -0.79102 -1.9629 -1.748 -1.9629 c-1.0547 0 -1.9629 0.66406 -1.9629 2.4707 l0 5.7031 l-2.2363 0 l0 -9.8242 l2.2363 0 l0 1.2109 c0.61523 -0.88867 1.582 -1.3965 2.7734 -1.3965 c1.3379 0 2.3828 0.53711 2.8906 1.5332 c0.64453 -1.0156 1.6797 -1.5332 2.9492 -1.5332 z M19.4423421875 8.301 c-0.76172 0 -1.3867 -0.625 -1.3867 -1.377 c0 -0.76172 0.625 -1.377 1.3867 -1.377 c0.74219 0 1.377 0.61523 1.377 1.377 c0 0.75195 -0.63477 1.377 -1.377 1.377 z M18.2900421875 20 l0 -9.8242 l2.2559 0 l0 9.8242 l-2.2559 0 z M27.51756875 20.17578 c-2.9492 0 -5.0879 -2.0313 -5.0879 -5.0977 c0 -3.0566 2.1387 -5.0879 5.0879 -5.0879 c2.334 0 4.1211 1.2402 4.6582 3.4277 l-2.0898 0.27344 c-0.38086 -1.25 -1.3477 -1.8945 -2.5879 -1.8945 c-1.6406 0 -2.8223 1.2988 -2.8223 3.2813 s1.1816 3.2813 2.8223 3.2813 c1.2402 0 2.207 -0.63477 2.5879 -1.8848 l2.0898 0.26367 c-0.53711 2.1875 -2.3633 3.4375 -4.6582 3.4375 z M36.1299171875 11.8262 c0.47852 -0.97656 1.7383 -1.748 3.1641 -1.7578 l0 2.0508 c-2.002 0 -3.0762 0.73242 -3.0762 2.8711 l0 5.0098 l-2.2559 0 l0 -9.8242 l2.168 0 l0 1.6504 z M44.996128125 20.18555 c-2.9688 0 -5.166 -1.9238 -5.166 -5.1074 c0 -3.1543 2.1777 -5.0879 5.166 -5.0879 c2.998 0 5.1758 1.9336 5.1758 5.0879 c0 3.1836 -2.1875 5.1074 -5.1758 5.1074 z M44.976528125 18.3691 c1.709 0 2.959 -1.2988 2.959 -3.291 c0 -1.9824 -1.25 -3.2813 -2.959 -3.2813 c-1.6797 0 -2.9102 1.2988 -2.9102 3.2813 c0 1.9922 1.2305 3.291 2.9102 3.291 z M65.716984375 14.9219 l-0.029297 0.56641 l-7.4707 0 c0.087891 1.9531 1.3477 2.8906 2.8418 2.8906 c1.0938 0 1.9824 -0.55664 2.4316 -1.543 l2.0508 0.35156 c-0.68359 1.8945 -2.3828 2.998 -4.4629 2.998 c-3.0176 0 -5.0684 -1.875 -5.0684 -5.0977 s2.0996 -5.1074 5 -5.1074 c2.7051 0 4.6973 1.582 4.707 4.9414 z M61.019484375 11.6504 c-1.377 0 -2.3926 0.66406 -2.7051 2.1582 l5.1465 0 c-0.17578 -1.4551 -1.1426 -2.1582 -2.4414 -2.1582 z M67.6396515625 20 l0 -15 l2.2656 0 l0 15 l-2.2656 0 z M83.46834375 9.99 c1.9727 0 3.3105 1.0938 3.3105 3.125 l0 6.8848 l-2.2559 0 l0 -6.2598 c0 -1.3281 -0.80078 -1.9141 -1.7188 -1.9141 c-1.0742 0 -1.9531 0.66406 -1.9531 2.373 l0 5.8008 l-2.2852 0 l0 -6.2109 c0 -1.3574 -0.79102 -1.9629 -1.748 -1.9629 c-1.0547 0 -1.9629 0.66406 -1.9629 2.4707 l0 5.7031 l-2.2363 0 l0 -9.8242 l2.2363 0 l0 1.2109 c0.61523 -0.88867 1.582 -1.3965 2.7734 -1.3965 c1.3379 0 2.3828 0.53711 2.8906 1.5332 c0.64453 -1.0156 1.6797 -1.5332 2.9492 -1.5332 z"/>
    </g>
</svg>
